<?xml version="1.0" encoding="UTF-8" standalone="no"?>
<svg
   width="24"
   height="24"
   version="1.1"
   id="svg5"
   sodipodi:docname="close.svg"
   inkscape:version="1.4.3 (0d15f75042, 2025-12-25)"
   xmlns:inkscape="http://www.inkscape.org/namespaces/inkscape"
   xmlns:sodipodi="http://sodipodi.sourceforge.net/DTD/sodipodi-0.dtd"
   xmlns:xlink="http://www.w3.org/1999/xlink"
   xmlns="http://www.w3.org/2000/svg"
   xmlns:svg="http://www.w3.org/2000/svg">
  <defs
     id="defs5">
    <filter
       inkscape:collect="always"
       style="color-interpolation-filters:sRGB"
       id="filter8"
       x="-0.1328096"
       y="-0.13144601"
       width="1.2656192"
       height="1.262892">
      <feGaussianBlur
         inkscape:collect="always"
         stdDeviation="4.972758"
         id="feGaussianBlur8" />
    </filter>
    <linearGradient
       inkscape:collect="always"
       xlink:href="#linearGradient5"
       id="linearGradient6"
       x1="107.06935"
       y1="177.71164"
       x2="107.06935"
       y2="135.89931"
       gradientUnits="userSpaceOnUse" />
    <linearGradient
       id="linearGradient5"
       inkscape:collect="always">
      <stop
         style="stop-color:#f9f9f9;stop-opacity:1;"
         offset="0"
         id="stop5" />
      <stop
         style="stop-color:#f9f9f9;stop-opacity:0.09490234;"
         offset="1"
         id="stop6" />
    </linearGradient>
    <filter
       inkscape:collect="always"
       style="color-interpolation-filters:sRGB"
       id="filter5"
       x="-0.1504195"
       y="-0.31064899"
       width="1.300839"
       height="1.621298">
      <feGaussianBlur
         inkscape:collect="always"
         stdDeviation="3.0722994"
         id="feGaussianBlur5" />
    </filter>
    <filter
       inkscape:collect="always"
       style="color-interpolation-filters:sRGB"
       id="filter9"
       x="-0.16420151"
       y="-0.40377421"
       width="1.328403"
       height="1.8075484">
      <feGaussianBlur
         inkscape:collect="always"
         stdDeviation="5.2954661"
         id="feGaussianBlur9" />
    </filter>
    <linearGradient
       inkscape:collect="always"
       xlink:href="#linearGradient2"
       id="linearGradient3"
       x1="107.06935"
       y1="111.19732"
       x2="107.06935"
       y2="88.75145"
       gradientUnits="userSpaceOnUse" />
    <linearGradient
       id="linearGradient2"
       inkscape:collect="always">
      <stop
         style="stop-color:#f9f9f9;stop-opacity:0;"
         offset="0"
         id="stop3" />
      <stop
         style="stop-color:#f9f9f9;stop-opacity:1;"
         offset="1"
         id="stop2" />
    </linearGradient>
    <filter
       inkscape:collect="always"
       style="color-interpolation-filters:sRGB"
       id="filter3"
       x="-0.18764779"
       y="-0.35183963"
       width="1.3752956"
       height="1.7036793">
      <feGaussianBlur
         inkscape:collect="always"
         stdDeviation="1.8154813"
         id="feGaussianBlur3" />
    </filter>
    <filter
       inkscape:collect="always"
       style="color-interpolation-filters:sRGB"
       id="filter4"
       x="-0.022422431"
       y="-0.022422433"
       width="1.0448449"
       height="1.0448449">
      <feGaussianBlur
         inkscape:collect="always"
         stdDeviation="0.5936611"
         id="feGaussianBlur4" />
    </filter>
    <linearGradient
       inkscape:collect="always"
       xlink:href="#linearGradient5"
       id="linearGradient10"
       gradientUnits="userSpaceOnUse"
       x1="107.06935"
       y1="177.71164"
       x2="107.06935"
       y2="135.89931" />
    <linearGradient
       inkscape:collect="always"
       xlink:href="#linearGradient2"
       id="linearGradient11"
       gradientUnits="userSpaceOnUse"
       x1="107.06935"
       y1="111.19732"
       x2="107.06935"
       y2="88.75145" />
    <linearGradient
       inkscape:collect="always"
       xlink:href="#linearGradient5"
       id="linearGradient15"
       gradientUnits="userSpaceOnUse"
       x1="107.06935"
       y1="177.71164"
       x2="107.06935"
       y2="135.89931" />
    <linearGradient
       inkscape:collect="always"
       xlink:href="#linearGradient2"
       id="linearGradient16"
       gradientUnits="userSpaceOnUse"
       x1="107.06935"
       y1="111.19732"
       x2="107.06935"
       y2="88.75145" />
    <linearGradient
       inkscape:collect="always"
       xlink:href="#linearGradient5"
       id="linearGradient21"
       gradientUnits="userSpaceOnUse"
       x1="107.06935"
       y1="177.71164"
       x2="107.06935"
       y2="135.89931" />
    <linearGradient
       inkscape:collect="always"
       xlink:href="#linearGradient2"
       id="linearGradient22"
       gradientUnits="userSpaceOnUse"
       x1="107.06935"
       y1="111.19732"
       x2="107.06935"
       y2="88.75145" />
    <filter
       inkscape:collect="always"
       style="color-interpolation-filters:sRGB"
       id="filter8-9"
       x="-0.1328096"
       y="-0.13144601"
       width="1.2656192"
       height="1.262892">
      <feGaussianBlur
         inkscape:collect="always"
         stdDeviation="4.972758"
         id="feGaussianBlur8-2" />
    </filter>
    <linearGradient
       inkscape:collect="always"
       xlink:href="#linearGradient5"
       id="linearGradient33"
       gradientUnits="userSpaceOnUse"
       x1="107.06935"
       y1="177.71164"
       x2="107.06935"
       y2="135.89931" />
    <filter
       inkscape:collect="always"
       style="color-interpolation-filters:sRGB"
       id="filter5-3"
       x="-0.1504195"
       y="-0.31064899"
       width="1.300839"
       height="1.621298">
      <feGaussianBlur
         inkscape:collect="always"
         stdDeviation="3.0722994"
         id="feGaussianBlur5-7" />
    </filter>
    <filter
       inkscape:collect="always"
       style="color-interpolation-filters:sRGB"
       id="filter9-5"
       x="-0.16420151"
       y="-0.40377421"
       width="1.328403"
       height="1.8075484">
      <feGaussianBlur
         inkscape:collect="always"
         stdDeviation="5.2954661"
         id="feGaussianBlur9-9" />
    </filter>
    <linearGradient
       inkscape:collect="always"
       xlink:href="#linearGradient2-2"
       id="linearGradient34"
       gradientUnits="userSpaceOnUse"
       x1="107.19835"
       y1="84.236473"
       x2="107.19835"
       y2="113.90629" />
    <linearGradient
       id="linearGradient2-2"
       inkscape:collect="always">
      <stop
         style="stop-color:#ffffff;stop-opacity:1;"
         offset="0.39407432"
         id="stop2-3" />
      <stop
         style="stop-color:#ffffff;stop-opacity:0;"
         offset="1"
         id="stop3-7" />
    </linearGradient>
    <filter
       inkscape:collect="always"
       style="color-interpolation-filters:sRGB"
       id="filter3-8"
       x="-0.20400272"
       y="-0.39100519"
       width="1.4080054"
       height="1.7820104">
      <feGaussianBlur
         inkscape:collect="always"
         stdDeviation="2.521968"
         id="feGaussianBlur3-9" />
    </filter>
  </defs>
  <sodipodi:namedview
     id="namedview5"
     pagecolor="#ffffff"
     bordercolor="#000000"
     borderopacity="0.25"
     inkscape:showpageshadow="2"
     inkscape:pageopacity="0.0"
     inkscape:pagecheckerboard="0"
     inkscape:deskcolor="#d1d1d1"
     inkscape:zoom="5.9956763"
     inkscape:cx="57.958432"
     inkscape:cy="0.583754"
     inkscape:window-width="1920"
     inkscape:window-height="1053"
     inkscape:window-x="0"
     inkscape:window-y="0"
     inkscape:window-maximized="1"
     inkscape:current-layer="svg5" />
  <g
     id="active-center"
     inkscape:label="active-center">
    <ellipse
       style="mix-blend-mode:normal;fill:#000000;fill-opacity:0.664062;stroke:#1a1a1a;stroke-width:0.0283891;stroke-linejoin:round;filter:url(#filter8)"
       id="ellipse6"
       cx="106.42678"
       cy="131.3394"
       rx="44.984749"
       ry="45.451412"
       transform="matrix(0.19758288,0,0,0.19763163,-8.8811938,-14.243897)" />
    <ellipse
       style="fill:#d40000;fill-opacity:1;stroke:#1a1a1a;stroke-width:0.00524657;stroke-linejoin:round"
       id="path1"
       inkscape:label="path1"
       ry="8.3998451"
       rx="8.3136005"
       cy="11.626007"
       cx="12.225409" />
    <ellipse
       style="opacity:0.734725;mix-blend-mode:normal;fill:url(#linearGradient6);stroke-width:0.026;stroke-linejoin:round;filter:url(#filter5)"
       id="path5-3"
       cx="107.06934"
       cy="166.40897"
       rx="24.50985"
       ry="11.867927"
       transform="matrix(0.24707971,0,0,0.38998426,-14.470694,-49.759959)"
       inkscape:label="path5" />
    <ellipse
       style="display:inline;opacity:0.734725;mix-blend-mode:normal;fill:#650000;fill-opacity:1;stroke-width:0.018895;stroke-linejoin:round;filter:url(#filter9)"
       id="path8"
       cx="104.74735"
       cy="125.38721"
       rx="38.69976"
       ry="15.737903"
       transform="matrix(0.2074668,0,0,0.29543431,-9.2973578,-27.349207)" />
    <ellipse
       style="fill:url(#linearGradient3);stroke-width:0.026;stroke-linejoin:round;filter:url(#filter3)"
       id="path2-6"
       cx="107.06934"
       cy="100.36138"
       rx="11.609929"
       ry="6.1919618"
       transform="matrix(0.26674489,0,0,0.26674489,-16.152127,-21.452159)" />
  </g>
  <g
     id="hover-center"
     inkscape:label="hover-center"
     transform="translate(23.740838,0.19459703)">
    <ellipse
       style="mix-blend-mode:normal;fill:#000000;fill-opacity:0.664062;stroke:#1a1a1a;stroke-width:0.0283891;stroke-linejoin:round;filter:url(#filter8)"
       id="ellipse5"
       cx="106.42678"
       cy="131.3394"
       rx="44.984749"
       ry="45.451412"
       transform="matrix(0.19758288,0,0,0.19763163,-8.8811938,-14.243897)" />
    <ellipse
       style="fill:#d40000;fill-opacity:1;stroke:#1a1a1a;stroke-width:0.00524657;stroke-linejoin:round"
       id="ellipse7"
       inkscape:label="path1"
       ry="8.3998451"
       rx="8.3136005"
       cy="11.626007"
       cx="12.225409" />
    <ellipse
       style="opacity:0.734725;mix-blend-mode:normal;fill:url(#linearGradient10);stroke-width:0.026;stroke-linejoin:round;filter:url(#filter5)"
       id="ellipse8"
       cx="107.06934"
       cy="166.40897"
       rx="24.50985"
       ry="11.867927"
       transform="matrix(0.24707971,0,0,0.38998426,-14.470694,-49.759959)"
       inkscape:label="path5" />
    <ellipse
       style="display:inline;opacity:0.734725;mix-blend-mode:normal;fill:#650000;fill-opacity:1;stroke-width:0.018895;stroke-linejoin:round;filter:url(#filter9)"
       id="ellipse9"
       cx="104.74735"
       cy="125.38721"
       rx="38.69976"
       ry="15.737903"
       transform="matrix(0.2074668,0,0,0.29543431,-9.2973578,-27.349207)" />
    <ellipse
       style="fill:url(#linearGradient11);stroke-width:0.026;stroke-linejoin:round;filter:url(#filter3)"
       id="ellipse10"
       cx="107.06934"
       cy="100.36138"
       rx="11.609929"
       ry="6.1919618"
       transform="matrix(0.26674489,0,0,0.26674489,-16.152127,-21.452159)" />
    <path
       id="rect3-7"
       style="display:inline;mix-blend-mode:normal;fill:#5d0000;fill-opacity:1;stroke-width:0.0197837;stroke-linejoin:round;filter:url(#filter4)"
       d="m 138.78325,12.739569 c -1.21246,1.212464 -1.96078,2.889271 -1.96078,4.747375 0,3.716209 2.99195,6.708152 6.70816,6.708152 l 18.35551,-3.65e-4 v 18.355883 c 0,3.716209 2.99158,6.707786 6.70779,6.707786 3.71621,0 6.70815,-2.991943 6.70815,-6.708152 V 24.195096 l 18.35552,-3.65e-4 c 3.71621,0 6.70779,-2.991578 6.70779,-6.707787 0,-3.716209 -2.99158,-6.707786 -6.70779,-6.707786 l -18.35552,-3.66e-4 V -7.5763603 c 0,-3.7162087 -2.99194,-6.7081517 -6.70815,-6.7081517 -3.71621,0 -6.70779,2.991577 -6.70779,6.7077863 V 10.779158 l -18.35551,-3.66e-4 c -1.85811,0 -3.53491,0.748314 -4.74738,1.960777 z"
       transform="matrix(0.14342594,0.14342594,-0.14342594,0.14342594,-9.2381921,-15.27152)" />
  </g>
  <g
     id="pressed-center"
     inkscape:label="pressed-center"
     transform="translate(48.861231,0.07666091)">
    <ellipse
       style="mix-blend-mode:normal;fill:#000000;fill-opacity:0.664062;stroke:#1a1a1a;stroke-width:0.0283891;stroke-linejoin:round;filter:url(#filter8)"
       id="ellipse11"
       cx="106.42678"
       cy="131.3394"
       rx="44.984749"
       ry="45.451412"
       transform="matrix(0.19758288,0,0,0.19763163,-8.8811938,-14.243897)" />
    <ellipse
       style="fill:#d40000;fill-opacity:1;stroke:#1a1a1a;stroke-width:0.00524657;stroke-linejoin:round"
       id="ellipse12"
       inkscape:label="path1"
       ry="8.3998451"
       rx="8.3136005"
       cy="11.626007"
       cx="12.225409" />
    <ellipse
       style="opacity:0.734725;mix-blend-mode:normal;fill:url(#linearGradient15);stroke-width:0.026;stroke-linejoin:round;filter:url(#filter5)"
       id="ellipse13"
       cx="107.06934"
       cy="166.40897"
       rx="24.50985"
       ry="11.867927"
       transform="matrix(0.24707971,0,0,0.38998426,-14.470694,-49.759959)"
       inkscape:label="path5" />
    <ellipse
       style="display:inline;opacity:0.734725;mix-blend-mode:normal;fill:#650000;fill-opacity:1;stroke-width:0.018895;stroke-linejoin:round;filter:url(#filter9)"
       id="ellipse14"
       cx="104.74735"
       cy="125.38721"
       rx="38.69976"
       ry="15.737903"
       transform="matrix(0.2074668,0,0,0.29543431,-9.2973578,-27.349207)" />
    <ellipse
       style="fill:url(#linearGradient16);stroke-width:0.026;stroke-linejoin:round;filter:url(#filter3)"
       id="ellipse15"
       cx="107.06934"
       cy="100.36138"
       rx="11.609929"
       ry="6.1919618"
       transform="matrix(0.26674489,0,0,0.26674489,-16.152127,-21.452159)" />
    <path
       id="path15"
       style="display:inline;mix-blend-mode:normal;fill:#5d0000;fill-opacity:1;stroke-width:0.0197837;stroke-linejoin:round;filter:url(#filter4)"
       d="m 138.78325,12.739569 c -1.21246,1.212464 -1.96078,2.889271 -1.96078,4.747375 0,3.716209 2.99195,6.708152 6.70816,6.708152 l 18.35551,-3.65e-4 v 18.355883 c 0,3.716209 2.99158,6.707786 6.70779,6.707786 3.71621,0 6.70815,-2.991943 6.70815,-6.708152 V 24.195096 l 18.35552,-3.65e-4 c 3.71621,0 6.70779,-2.991578 6.70779,-6.707787 0,-3.716209 -2.99158,-6.707786 -6.70779,-6.707786 l -18.35552,-3.66e-4 V -7.5763603 c 0,-3.7162087 -2.99194,-6.7081517 -6.70815,-6.7081517 -3.71621,0 -6.70779,2.991577 -6.70779,6.7077863 V 10.779158 l -18.35551,-3.66e-4 c -1.85811,0 -3.53491,0.748314 -4.74738,1.960777 z"
       transform="matrix(0.14342594,0.14342594,-0.14342594,0.14342594,-9.2381921,-15.27152)" />
    <ellipse
       style="fill:#000000;fill-opacity:1;stroke:#1a1a1a;stroke-width:0.00524657;stroke-linejoin:round;opacity:0.3074992"
       id="ellipse16"
       inkscape:label="path1"
       ry="8.3998451"
       rx="8.3136005"
       cy="11.626007"
       cx="12.225409" />
  </g>
  <g
     id="inactive-center"
     inkscape:label="#inactive-center"
     transform="translate(71.587224,-0.58968059)">
    <ellipse
       style="mix-blend-mode:normal;fill:#000000;fill-opacity:0.664062;stroke:#1a1a1a;stroke-width:0.0283891;stroke-linejoin:round;filter:url(#filter8)"
       id="ellipse17"
       cx="106.42678"
       cy="131.3394"
       rx="44.984749"
       ry="45.451412"
       transform="matrix(0.19758288,0,0,0.19763163,-8.8811938,-14.243897)" />
    <ellipse
       style="fill:#d40000;fill-opacity:1;stroke:#1a1a1a;stroke-width:0.00524657;stroke-linejoin:round"
       id="ellipse18"
       inkscape:label="path1"
       ry="8.3998451"
       rx="8.3136005"
       cy="11.626007"
       cx="12.225409" />
    <ellipse
       style="opacity:0.734725;mix-blend-mode:normal;fill:url(#linearGradient21);stroke-width:0.026;stroke-linejoin:round;filter:url(#filter5)"
       id="ellipse19"
       cx="107.06934"
       cy="166.40897"
       rx="24.50985"
       ry="11.867927"
       transform="matrix(0.24707971,0,0,0.38998426,-14.470694,-49.759959)"
       inkscape:label="path5" />
    <ellipse
       style="display:inline;opacity:0.734725;mix-blend-mode:normal;fill:#650000;fill-opacity:1;stroke-width:0.018895;stroke-linejoin:round;filter:url(#filter9)"
       id="ellipse20"
       cx="104.74735"
       cy="125.38721"
       rx="38.69976"
       ry="15.737903"
       transform="matrix(0.2074668,0,0,0.29543431,-9.2973578,-27.349207)" />
    <ellipse
       style="fill:url(#linearGradient22);stroke-width:0.026;stroke-linejoin:round;filter:url(#filter3)"
       id="ellipse21"
       cx="107.06934"
       cy="100.36138"
       rx="11.609929"
       ry="6.1919618"
       transform="matrix(0.26674489,0,0,0.26674489,-16.152127,-21.452159)" />
  </g>
  <g
     inkscape:label="#deactivated-center"
     id="deactivated-center"
     transform="matrix(0.199936,0,0,0.199936,88.412586,-13.448959)">
    <ellipse
       style="mix-blend-mode:normal;fill:#000000;fill-opacity:0.664062;stroke:#1a1a1a;stroke-width:0.0283891;stroke-linejoin:round;filter:url(#filter8-9)"
       id="ellipse1"
       cx="106.42678"
       cy="131.3394"
       rx="44.984749"
       ry="45.451412"
       transform="matrix(0.96531703,0,0,0.96555519,2.6747635,4.2772932)"
       inkscape:export-filename="minimise.png.png"
       inkscape:export-xdpi="96"
       inkscape:export-ydpi="96" />
    <ellipse
       style="fill:#848484;fill-opacity:1;stroke:#1a1a1a;stroke-width:0.0256327;stroke-linejoin:round"
       id="ellipse2"
       inkscape:label="path1"
       ry="41.038544"
       rx="40.617188"
       cy="130.66811"
       cx="105.79386" />
    <ellipse
       style="opacity:0.734725;mix-blend-mode:normal;fill:url(#linearGradient33);stroke-width:0.026;stroke-linejoin:round;filter:url(#filter5-3)"
       id="ellipse3"
       cx="107.06934"
       cy="166.40897"
       rx="24.50985"
       ry="11.867927"
       transform="matrix(1.2071403,0,0,1.9053192,-23.972358,-169.22603)"
       inkscape:label="path5" />
    <ellipse
       style="display:inline;opacity:0.734725;mix-blend-mode:normal;fill:#3b3b3b;fill-opacity:1;stroke-width:0.018895;stroke-linejoin:round;filter:url(#filter9-5)"
       id="ellipse4"
       cx="104.74735"
       cy="125.38721"
       rx="38.69976"
       ry="15.737903"
       transform="matrix(1.0136062,0,0,1.4433831,1.2021409,-63.114)" />
    <ellipse
       style="opacity:0.734725;mix-blend-mode:normal;fill:url(#linearGradient34);fill-opacity:1;stroke-width:0.026;stroke-linejoin:round;filter:url(#filter3-8)"
       id="ellipse6-9"
       cx="107.19835"
       cy="99.071381"
       rx="14.834908"
       ry="7.7399521"
       transform="matrix(0.99097644,0,0,0.99097644,0.45524802,0.6828146)" />
  </g>
  <rect
     style="fill:#000000;fill-opacity:0;stroke-width:1.22528;stroke-linejoin:round"
     id="rect2"
     width="10.00721"
     height="37.860615"
     x="22.015865"
     y="-17.179047" />
</svg>
